<svg xmlns="http://www.w3.org/2000/svg" xmlns:xlink="http://www.w3.org/1999/xlink" width="500" zoomAndPan="magnify" viewBox="0 0 375 374.999991" height="500" preserveAspectRatio="xMidYMid meet" version="1.0"><path fill="#f99916" d="M 206.984375 227.863281 C 206.984375 218.957031 203.886719 210.777344 198.796875 204.339844 C 198.636719 204.183594 198.480469 203.941406 198.324219 203.78125 C 194.667969 199.332031 192.199219 193.921875 191.015625 188.042969 C 191.015625 187.726562 190.6875 187.570312 190.375 187.570312 C 190.058594 187.570312 189.816406 187.8125 189.742188 188.125 C 189.417969 190.59375 188.945312 192.894531 188.148438 195.203125 C 187.832031 196.148438 187.433594 197.1875 187.035156 198.144531 C 185.921875 200.683594 184.578125 203.070312 182.980469 205.292969 C 182.351562 206.082031 181.792969 206.882812 181.078125 207.679688 C 180.355469 208.46875 179.640625 209.265625 178.855469 210.0625 C 178.695312 210.21875 178.613281 210.535156 178.695312 210.777344 L 189.976562 237.480469 C 192.601562 232.3125 194.027344 226.507812 194.027344 220.394531 C 194.027344 214.273438 194.027344 219.125 194.027344 218.402344 C 194.027344 217.769531 194.898438 217.453125 195.226562 218.011719 C 198.5625 223.652344 200.550781 230.328125 200.550781 237.398438 C 200.550781 244.472656 199.835938 245.902344 198.480469 249.796875 C 198.238281 250.511719 199.195312 250.984375 199.59375 250.355469 C 204.121094 244.074219 206.828125 236.367188 206.828125 228.019531 Z M 206.984375 227.863281 " fill-opacity="1" fill-rule="nonzero"/><path fill="#f6f3ed" d="M 23.953125 217.929688 L 6.871094 217.929688 C 6.628906 215.941406 6.394531 213.875 6.15625 211.890625 L 74.265625 211.890625 C 74.738281 211.890625 75.136719 212.128906 75.292969 212.605469 L 75.851562 214.03125 L 76.890625 216.417969 C 77.203125 217.128906 76.648438 218.011719 75.851562 218.011719 L 23.878906 218.011719 Z M 364.257812 217.929688 C 364.5 215.941406 364.742188 213.875 364.984375 211.890625 L 299.414062 211.890625 C 298.933594 211.890625 298.542969 212.128906 298.375 212.605469 L 296.789062 216.417969 C 296.476562 217.128906 297.03125 218.011719 297.820312 218.011719 L 364.34375 218.011719 Z M 309.109375 187.253906 C 309.109375 187.410156 307.4375 191.148438 306.484375 193.367188 C 306.167969 194.089844 306.722656 194.960938 307.523438 194.960938 L 364.183594 194.960938 C 357.90625 127.566406 314.359375 71.0625 254.355469 46.183594 C 254.355469 46.183594 254.355469 46.183594 254.273438 46.183594 C 234.402344 37.996094 212.78125 33.226562 190.132812 32.671875 C 188.628906 32.671875 187.117188 32.671875 185.605469 32.671875 C 184.09375 32.671875 182.582031 32.671875 181.078125 32.671875 C 158.429688 33.226562 136.808594 37.996094 116.941406 46.183594 C 56.855469 71.0625 13.304688 127.640625 6.953125 195.035156 L 66.15625 195.035156 C 66.957031 195.035156 67.511719 194.246094 67.1875 193.535156 C 66.398438 191.621094 65.203125 188.597656 64.488281 187.328125 C 63.933594 186.214844 62.734375 184.472656 61.464844 183.199219 C 58.367188 180.101562 54.070312 178.75 49.472656 178.191406 C 44.0625 177.550781 27.851562 175.964844 27.851562 175.964844 C 43.109375 103.804688 106.207031 51.59375 182.425781 49.523438 L 182.425781 98.71875 C 182.425781 105.628906 176.703125 111.355469 169.792969 111.355469 L 162.398438 111.355469 C 161.769531 111.355469 161.285156 111.828125 161.285156 112.464844 L 161.285156 116.277344 C 161.285156 116.917969 161.769531 117.390625 162.398438 117.390625 L 208.496094 117.390625 C 209.128906 117.390625 209.609375 116.917969 209.609375 116.277344 L 209.609375 112.464844 C 209.609375 111.828125 209.128906 111.355469 208.496094 111.355469 L 199.59375 111.355469 C 193.398438 111.355469 188.464844 106.34375 188.464844 100.222656 L 188.464844 49.523438 C 264.605469 51.59375 327.707031 103.804688 342.964844 175.964844 C 342.964844 175.964844 328.734375 177.550781 323.96875 178.191406 C 317.613281 179.0625 311.734375 181.929688 308.949219 187.410156 Z M 275.335938 152.675781 L 219.386719 152.675781 C 218.746094 152.675781 218.273438 153.15625 218.273438 153.789062 L 218.273438 157.609375 C 218.273438 158.242188 218.746094 158.722656 219.386719 158.722656 L 227.882812 158.722656 C 237.1875 158.722656 244.894531 166.117188 244.976562 175.410156 C 244.976562 176.28125 244.976562 177.164062 244.8125 178.035156 C 244.652344 179.460938 244.253906 180.816406 243.699219 182.085938 C 243.699219 182.160156 243.699219 182.246094 243.539062 182.402344 L 238.214844 194.960938 L 228.367188 218.167969 L 200.148438 284.765625 L 190.132812 261.160156 L 189.574219 259.816406 L 181.152344 239.9375 L 171.21875 216.417969 L 162.082031 194.960938 L 160.414062 190.984375 L 156.835938 182.488281 L 156.601562 181.929688 C 155.804688 179.9375 155.40625 177.792969 155.40625 175.492188 C 155.40625 166.117188 163.355469 158.722656 172.730469 158.722656 L 180.039062 158.722656 C 180.679688 158.722656 181.152344 158.242188 181.152344 157.609375 L 181.152344 153.789062 C 181.152344 153.15625 180.679688 152.675781 180.039062 152.675781 L 85.710938 152.675781 C 85.070312 152.675781 84.597656 153.15625 84.597656 153.789062 L 84.597656 157.609375 C 84.597656 158.242188 85.070312 158.722656 85.710938 158.722656 L 90.875 158.722656 C 99.773438 158.722656 107.722656 162.617188 113.128906 168.816406 C 114.082031 169.929688 115.03125 171.113281 115.828125 172.386719 L 118.695312 178.035156 L 122.023438 185.898438 L 125.84375 194.960938 L 133.867188 213.957031 L 135.539062 218.011719 L 154.609375 262.988281 L 163.828125 284.765625 L 168.761719 296.285156 L 205 296.285156 C 205 296.285156 209.925781 284.765625 209.925781 284.765625 L 238.855469 216.65625 L 247.992188 195.035156 L 255.144531 178.109375 L 259.835938 167.0625 L 261.023438 164.363281 C 261.265625 163.964844 261.507812 163.566406 261.820312 163.25 C 263.890625 160.625 267.0625 158.878906 270.644531 158.878906 L 275.335938 158.878906 C 275.96875 158.878906 276.449219 158.398438 276.449219 157.769531 L 276.449219 153.957031 C 276.449219 153.316406 275.96875 152.84375 275.335938 152.84375 Z M 275.335938 152.675781 " fill-opacity="1" fill-rule="nonzero"/></svg>