<svg xmlns="http://www.w3.org/2000/svg" xmlns:xlink="http://www.w3.org/1999/xlink" width="500" zoomAndPan="magnify" viewBox="0 0 375 374.999991" height="500" preserveAspectRatio="xMidYMid meet" version="1.0"><path fill="#f99916" d="M 206.832031 227.734375 C 206.832031 218.832031 203.734375 210.652344 198.640625 204.21875 C 198.484375 204.058594 198.328125 203.820312 198.167969 203.660156 C 194.515625 199.210938 192.046875 193.804688 190.863281 187.925781 C 190.863281 187.609375 190.535156 187.453125 190.222656 187.453125 C 189.90625 187.453125 189.664062 187.691406 189.589844 188.007812 C 189.265625 190.476562 188.792969 192.773438 187.996094 195.082031 C 187.679688 196.03125 187.28125 197.066406 186.882812 198.023438 C 185.769531 200.5625 184.425781 202.949219 182.832031 205.171875 C 182.199219 205.960938 181.644531 206.757812 180.929688 207.554688 C 180.207031 208.34375 179.492188 209.140625 178.703125 209.941406 C 178.546875 210.097656 178.460938 210.414062 178.546875 210.652344 L 189.824219 237.351562 C 192.445312 232.1875 193.875 226.382812 193.875 220.269531 C 193.875 214.148438 193.875 219 193.875 218.277344 C 193.875 217.644531 194.746094 217.332031 195.070312 217.886719 C 198.410156 223.523438 200.394531 230.203125 200.394531 237.269531 C 200.394531 244.34375 199.679688 245.773438 198.328125 249.667969 C 198.085938 250.382812 199.039062 250.855469 199.4375 250.222656 C 203.964844 243.945312 206.671875 236.238281 206.671875 227.894531 Z M 206.832031 227.734375 " fill-opacity="1" fill-rule="nonzero"/><path fill="#0f3b3a" d="M 23.835938 217.804688 L 6.753906 217.804688 C 6.515625 215.820312 6.28125 213.75 6.042969 211.765625 L 74.136719 211.765625 C 74.609375 211.765625 75.007812 212.007812 75.164062 212.480469 L 75.722656 213.910156 L 76.761719 216.292969 C 77.078125 217.007812 76.519531 217.886719 75.722656 217.886719 L 23.761719 217.886719 Z M 364.070312 217.804688 C 364.3125 215.820312 364.554688 213.75 364.792969 211.765625 L 299.238281 211.765625 C 298.757812 211.765625 298.367188 212.007812 298.203125 212.480469 L 296.617188 216.292969 C 296.300781 217.007812 296.855469 217.886719 297.644531 217.886719 L 364.152344 217.886719 Z M 308.929688 187.136719 C 308.929688 187.292969 307.261719 191.03125 306.304688 193.246094 C 305.992188 193.972656 306.546875 194.84375 307.34375 194.84375 L 363.996094 194.84375 C 357.71875 127.460938 314.179688 70.96875 254.191406 46.097656 C 254.191406 46.097656 254.191406 46.097656 254.105469 46.097656 C 234.242188 37.910156 212.625 33.140625 189.980469 32.585938 C 188.476562 32.585938 186.964844 32.585938 185.453125 32.585938 C 183.945312 32.585938 182.433594 32.585938 180.929688 32.585938 C 158.285156 33.140625 136.667969 37.910156 116.804688 46.097656 C 56.730469 70.96875 13.191406 127.535156 6.839844 194.917969 L 66.03125 194.917969 C 66.828125 194.917969 67.386719 194.128906 67.0625 193.414062 C 66.273438 191.503906 65.078125 188.480469 64.363281 187.210938 C 63.804688 186.097656 62.609375 184.355469 61.339844 183.082031 C 58.242188 179.988281 53.949219 178.632812 49.347656 178.078125 C 43.941406 177.4375 27.730469 175.851562 27.730469 175.851562 C 42.988281 103.703125 106.074219 51.503906 182.273438 49.433594 L 182.273438 98.621094 C 182.273438 105.53125 176.550781 111.25 169.644531 111.25 L 162.253906 111.25 C 161.621094 111.25 161.140625 111.726562 161.140625 112.363281 L 161.140625 116.175781 C 161.140625 116.816406 161.621094 117.289062 162.253906 117.289062 L 208.34375 117.289062 C 208.972656 117.289062 209.453125 116.816406 209.453125 116.175781 L 209.453125 112.363281 C 209.453125 111.726562 208.972656 111.25 208.34375 111.25 L 199.4375 111.25 C 193.246094 111.25 188.3125 106.246094 188.3125 100.125 L 188.3125 49.433594 C 264.4375 51.503906 327.523438 103.703125 342.777344 175.851562 C 342.777344 175.851562 328.554688 177.4375 323.785156 178.078125 C 317.433594 178.949219 311.554688 181.8125 308.773438 187.292969 Z M 275.167969 152.566406 L 219.230469 152.566406 C 218.589844 152.566406 218.117188 153.046875 218.117188 153.679688 L 218.117188 157.5 C 218.117188 158.128906 218.589844 158.609375 219.230469 158.609375 L 227.722656 158.609375 C 237.023438 158.609375 244.730469 166.003906 244.8125 175.292969 C 244.8125 176.164062 244.8125 177.046875 244.648438 177.917969 C 244.488281 179.347656 244.089844 180.699219 243.535156 181.972656 C 243.535156 182.046875 243.535156 182.128906 243.375 182.285156 L 238.054688 194.84375 L 228.207031 218.042969 L 199.996094 284.628906 L 189.980469 261.027344 L 189.425781 259.683594 L 181.003906 239.808594 L 171.070312 216.292969 L 161.9375 194.84375 L 160.269531 190.863281 L 156.6875 182.371094 L 156.457031 181.8125 C 155.660156 179.820312 155.261719 177.675781 155.261719 175.378906 C 155.261719 166.003906 163.207031 158.609375 172.582031 158.609375 L 179.890625 158.609375 C 180.53125 158.609375 181.003906 158.128906 181.003906 157.5 L 181.003906 153.679688 C 181.003906 153.046875 180.53125 152.566406 179.890625 152.566406 L 85.578125 152.566406 C 84.941406 152.566406 84.46875 153.046875 84.46875 153.679688 L 84.46875 157.5 C 84.46875 158.128906 84.941406 158.609375 85.578125 158.609375 L 90.746094 158.609375 C 99.636719 158.609375 107.585938 162.507812 112.992188 168.699219 C 113.949219 169.8125 114.894531 171 115.691406 172.269531 L 118.554688 177.917969 L 121.886719 185.78125 L 125.707031 194.84375 L 133.726562 213.835938 L 135.398438 217.886719 L 154.464844 262.855469 L 163.679688 284.628906 L 168.613281 296.144531 L 204.847656 296.144531 C 204.847656 296.144531 209.769531 284.628906 209.769531 284.628906 L 238.695312 216.53125 L 247.828125 194.917969 L 254.976562 177.992188 L 259.671875 166.949219 L 260.855469 164.25 C 261.097656 163.851562 261.339844 163.453125 261.65625 163.136719 C 263.722656 160.511719 266.894531 158.769531 270.472656 158.769531 L 275.167969 158.769531 C 275.796875 158.769531 276.277344 158.285156 276.277344 157.65625 L 276.277344 153.84375 C 276.277344 153.203125 275.796875 152.730469 275.167969 152.730469 Z M 275.167969 152.566406 " fill-opacity="1" fill-rule="nonzero"/></svg>